<svg xmlns="http://www.w3.org/2000/svg" viewBox="0 0 120 120" fill="none">
  <!-- Background rounded square -->
  <rect width="120" height="120" rx="28" fill="#FF6B35"/>
  <!-- Nut/seed shape — stylized almond -->
  <path d="M60 25C45 25 33 40 33 58C33 76 45 95 60 95C75 95 87 76 87 58C87 40 75 25 60 25Z" fill="white" opacity="0.95"/>
  <!-- Inner detail — seed line -->
  <path d="M60 32C60 32 50 50 50 62C50 74 54 85 60 88C66 85 70 74 70 62C70 50 60 32 60 32Z" fill="#FF6B35" opacity="0.15"/>
  <!-- Leaf accent -->
  <path d="M72 30C72 30 78 22 86 24C86 24 82 32 74 34L72 30Z" fill="white" opacity="0.7"/>
</svg>
