<svg width="64" height="64" viewBox="0 0 64 64" fill="none" xmlns="http://www.w3.org/2000/svg" role="img" aria-label="Estación Snack">
  <!-- Squircle bg, ratio 22% (Apple app icon convention) -->
  <rect width="64" height="64" rx="14" fill="#1D1D1F"/>

  <!-- Almond seed silhouette: vertical asymmetric oval -->
  <path
    d="M32 12
       C 22.5 12, 16 21, 16 30
       C 16 39, 21 49, 28 52.5
       C 30.5 53.7, 33.5 53.7, 36 52.5
       C 43 49, 48 39, 48 30
       C 48 21, 41.5 12, 32 12 Z"
    fill="#FAF9F7"
  />

  <!-- S-curve interior — sugiere "Snack" + da memoria visual -->
  <path
    d="M27 25
       C 27 22, 31 21, 33 23
       C 35 25, 31 29, 29 31
       C 27 33, 31 37, 33 39
       C 35 41, 31 43, 29 41"
    stroke="#1D1D1F" stroke-width="2.6" stroke-linecap="round" fill="none"
  />
</svg>
