<svg xmlns="http://www.w3.org/2000/svg" viewBox="0 0 360 80" fill="none">
  <!-- Icon -->
  <rect width="56" height="56" rx="14" y="12" fill="#FF6B35"/>
  <path d="M28 22C20 22 15 31 15 41C15 51 20 60 28 60C36 60 41 51 41 41C41 31 36 22 28 22Z" transform="translate(0,12)" fill="white" opacity="0.95"/>
  <path d="M28 26C28 26 23 36 23 43C23 50 25 56 28 58C31 56 33 50 33 43C33 36 28 26 28 26Z" transform="translate(0,12)" fill="#FF6B35" opacity="0.15"/>
  <path d="M36 24C36 24 39 19 44 20C44 20 42 25 37 26L36 24Z" transform="translate(0,12)" fill="white" opacity="0.7"/>
  <!-- Text: Estación -->
  <text x="72" y="38" font-family="'DM Serif Display',Georgia,serif" font-size="28" font-weight="400" fill="#1A1816">Estación</text>
  <!-- Text: Snack -->
  <text x="72" y="64" font-family="'Outfit',system-ui,sans-serif" font-size="22" font-weight="800" fill="#FF6B35" letter-spacing="0.05em">SNACK</text>
</svg>
